<svg width="52" height="52" xmlns="http://www.w3.org/2000/svg">

 <g>
  <title>background</title>
  <rect fill="none" id="canvas_background" height="402" width="582" y="-1" x="-1"/>
 </g>
 <g>
  <title>Layer 1</title>
  <path id="svg_3" fill="#0493ff" d="m20.29617,17.20996c0.00995,-0.01996 0.22998,-0.59997 2.13,-2.61999c1.25,-1.32996 1.21997,-3.38001 -0.07,-4.65998l-7.01001,-6.95001c-1.13001,-1.13 -3.02002,-1.27997 -4.33002,-0.35998c-1.32849,0.9389 -2.50287,1.82891 -3.54004,2.67492l12.58222,12.74994c0.07025,-0.28064 0.1394,-0.56171 0.23785,-0.8349z"/>
  <path id="svg_5" fill="#0493ff" d="m48.513497,36.02997l-5.48999,-5.44995c-0.85003,-0.85004 -1.98999,-1.32001 -3.20001,-1.32001c-1.11999,0 -2.20001,0.40997 -3.04999,1.14996c-1.39001,1.23004 -1.82,1.40003 -1.86999,1.42005c-0.41406,0.14935 -0.84076,0.25909 -1.2735,0.34369l12.98084,12.72686c0.75055,-0.88775 1.53686,-1.8836 2.36267,-3.00061c1.33996,-1.80999 1.14996,-4.27996 -0.46003,-5.86999z"/>
  <path fill="#d9e1ef" id="svg_7" d="m21.95614,26.66998c-1.35046,-1.92743 -2.08081,-4.0191 -2.16546,-6.04937l-13.83814,-14.02265c-2.68219,2.42029 -4.01629,4.40497 -3.95642,5.922c0.52002,12.80005 24.87006,36.97003 37.77002,37.48004l0.10999,0c1.43664,0 3.29589,-1.21484 5.5465,-3.60364l-14.39996,-14.11828c-3.3866,-0.34949 -6.85858,-2.46039 -9.06653,-5.6081z"/>
 </g>
</svg>